# xmcd CD database file
#
# Track frame offsets:
#	150
#	11701
#	22726
#	33212
#	45510
#	57452
#	76559
#	87695
#	96032
#	109026
#	124741
#	135995
#	148566
#	162932
#	178739
#	190358
#	205799
#
# Disc length: 2932 seconds
#
# Revision: 0
# Processed by: cddbd v1.5.2PL0 Copyright (c) Steve Scherf et al.
# Submitted via: CDex 1.51
#
DISCID=d60b7211
DTITLE=Chris Connor - Her Complete Bethlehem Recordings [CD2)
DYEAR=1954
DGENRE=Jazz
TTITLE0=Goodbye
TTITLE1=Stella By Starlight
TTITLE2=Gone With The Wind
TTITLE3=He's Comming Home
TTITLE4=Blame It On My Mouth
TTITLE5=Ridin' High
TTITLE6=It's All Right With Me
TTITLE7=All Dressed Up With A Broken Heart
TTITLE8=Trouble Is A Man
TTITLE9=All This And Heaven Too
TTITLE10=From This Moment On
TTITLE11=The Thrill Is Gone
TTITLE12=Someone To Watch Over You
TTITLE13=I Concentrate On You
TTITLE14=Don't Wait Up For Me
TTITLE15=A Good Man Is A Seldom Thing
TTITLE16=In Other Words (Fly Me To The Moon)
EXTD=YEAR: 1954
EXTT0=
EXTT1=
EXTT2=
EXTT3=
EXTT4=
EXTT5=
EXTT6=
EXTT7=
EXTT8=
EXTT9=
EXTT10=
EXTT11=
EXTT12=
EXTT13=
EXTT14=
EXTT15=
EXTT16=
PLAYORDER=
